<svg xmlns="http://www.w3.org/2000/svg" viewBox="0 0 2696 776.6">
  <defs>
    <style>
      .cls-1 {
        fill: #ff6f36;
      }

      .cls-15, .cls-2, .cls-7, .cls-8 {
        fill: #fff;
      }

      .cls-3 {
        opacity: 0.16;
      }

      .cls-4 {
        opacity: 0.1;
      }

      .cls-5, .cls-6, .cls-7 {
        opacity: 0.75;
      }

      .cls-6 {
        fill: #f2f2f2;
      }

      .cls-8 {
        opacity: 0.5;
      }

      .cls-9 {
        fill: #f8efe0;
      }

      .cls-10, .cls-12 {
        fill: none;
        stroke: #0f191e;
      }

      .cls-10, .cls-12, .cls-15 {
        stroke-miterlimit: 10;
      }

      .cls-10 {
        stroke-width: 10px;
      }

      .cls-11 {
        fill: #0f191e;
      }

      .cls-12 {
        stroke-width: 12px;
      }

      .cls-13 {
        fill: #ff50a0;
      }

      .cls-14 {
        fill: #ff2c8c;
      }

      .cls-15 {
        stroke: #fff;
      }
    </style>
  </defs>
  <title>LD White Black Outline</title>
  <g id="Layer_2" data-name="Layer 2">
    <g id="White_Fix_File" data-name="White Fix File">
      <g id="LD_White_Black_Outline" data-name="LD White Black Outline">
        <g id="Tako_Coin_Full_Color" data-name="Tako Coin Full Color">
          <g id="Tako">
            <g id="Main_Color" data-name="Main Color">
              <g>
                <path class="cls-1" d="M696.91,522.06c26.56,5.22,40.59,36.87,63.06,35.71,24.89-1.28,55.36-15.69,65.51-40.35,3.68-8.92,10.11-32.31,4.81-48.73a34.47,34.47,0,0,1-1.17-17.83c.64-3,1.88-8.8,6-10.69,3-1.38,7.46-.66,17.85,7.15,8.05,6.06,18,13.72,27.35,28.55a106,106,0,0,1,14.26,35.67c4.08,20.79.48,37.19-2.43,49.92-2.6,11.38-9.71,40.86-34.58,68.9-20.07,22.63-41.69,33-54.8,39.18-24.85,11.64-40.62,20.74-58.35,16.59-18.19-4.27-25.76-18.72-40.44-36.89-48.31-59.78-103.83-73-99.92-91.61C607.87,539.27,656.08,514,696.91,522.06Z"/>
                <path class="cls-2" d="M877.38,602.08c-7.64,14.46-11.57,21.94-20.23,28.52-4.55,3.46-13,8.65-23.81,19-2,2-3.67,3.61-4.76,4.75A93.26,93.26,0,0,1,825,682.9c-5.86,20.3-17.32,32.9-25,41.6-25.75,29.17-56.8,38.45-67.85,41.6-8.79,2.5-29.76,8.3-55.95,4.75-11.87-1.6-21-4.63-39.29-10.69-22.68-7.52-34-11.28-42.86-16.64-16.59-10.07-27.16-26.26-47.62-58.24-7.3-11.43-7.48-12.54-29.76-48.73-16.48-26.78-22.09-35.85-34.52-41.6-16-7.42-31.06-5.56-36.91-4.76-3.28.45-18.8,2.81-35.71,15.45-15.75,11.78-22.76,25-32.14,41.6-26.33,46.46-39.49,69.69-55.95,84.39-20.34,18.16-41.32,25.8-52.39,29.72-39.82,14.1-73.22,9.33-79.76,8.32-13.11-2-43.29-7.13-71.42-30.91-3.72-3.14-22.17-19.09-35.72-47.54-4.65-9.77-7-19.33-10-38a145.14,145.14,0,0,1-25.71-22.88c-24.87-28-32-57.52-34.59-68.91-2.91-12.73-6.5-29.13-2.43-49.92a106.31,106.31,0,0,1,14.26-35.67C33,461.05,43,453.38,51,447.32c8.26-6.21,12.8-7.93,15.8-7.67a89.89,89.89,0,0,1,3.45-13.48c5.14-15.18,10.46-17.92,20.23-35.66,6.6-12,14.6-26.82,16.67-46.35A93.18,93.18,0,0,0,106,316.82c-2.89.6-17.75,3.37-30.95-5.94-18.85-13.29-15.66-38-15.48-39.23,3.53-24.15,27-33.85,28.57-34.46C114,227,138,246.11,141.67,249.07c11.64,9.27,16.55,20.12,21.43,30.9,3.42,7.56,13.93,32.85,10.72,67.75-1.31,14.15-3,10.16-13.1,57-5.86,27.35-7.89,41,0,51.11,5.1,6.56,12.54,9.37,17.86,10.7,5.59.22,16.82-.17,27.38-7.13,11.44-7.54,15.86-18.68,20.24-29.72a103,103,0,0,0,7.14-33.28c1.21-26.16-6.74-42.54-13.09-64.18a271.35,271.35,0,0,1-10.72-72.5c-4.66-19.64-12.75-66.14,8.33-116.48,11.68-27.88,27.57-45.61,36.91-55.86,41.67-45.72,91.51-61.62,115.47-68.94A283.4,283.4,0,0,1,494.05,9a275.9,275.9,0,0,1,64.29,17.83c24.2,10.16,111.72,49.94,132.14,126,9.33,34.72,7.46,87.4,7.14,96.27a447.42,447.42,0,0,1-7.14,65.37c-10,21.41-19.43,51.6-16.67,86.77,1.37,17.36,3.28,37.86,19.05,52.3,1.68,1.53,21.74,19.41,39.29,11.88,10.38-4.46,14.61-15.56,15.47-17.83,2.74-7.18,2.45-13.73,0-27.33-3.15-17.56-6.09-25.73-10.71-44-4.81-19-7.21-28.73-7.14-39.22a94.67,94.67,0,0,1,6-32.1c0-6.52.85-25.3,14.28-42.78a65.47,65.47,0,0,1,31-22.59c7.66-2.58,23.14-7.81,39.28,0,16.51,8,21.9,23.91,22.62,26.15s6.51,21.32-4.76,36.85c-2.12,2.91-8.11,11.16-19.05,13.07a28.3,28.3,0,0,1-16.67-2.38,44.58,44.58,0,0,0-4.76,8.32c-9.38,21.59,1.61,44.36,3.57,48.74,5.32,11.84,9.79,12.37,17.86,26.14a229.11,229.11,0,0,1,20.24,45.17,82.7,82.7,0,0,1,32.14,20.21c19.4,19.93,22.19,44.17,23.81,58.24C899.8,559.66,883.83,589.89,877.38,602.08Z"/>
                <g id="Shadow">
                  <path id="Shadow-2" data-name="Shadow" class="cls-3" d="M453.91,591.08a30.7,30.7,0,0,0-3.81-6.38A26.64,26.64,0,0,0,442,578s-7.6-3.76-19-1.19c-24.91,5.62-69,72.51-69,72.51-25.86,39-38.79,58.54-53.57,70.12-17.9,14-47.11,28.16-96.43,27.34,10.88,7.2,29.54,16.75,52.38,15.45,17.44-1,31.42-8,46.43-15.45a192.81,192.81,0,0,0,27.38-16.64l25-2.38,34.52-19q8.94-19,17.86-38l21.43-36.84,22.62-10.7C456.3,609.4,456.63,597.37,453.91,591.08Z"/>
                  <path id="Shadow-3" data-name="Shadow" class="cls-3" d="M638.87,86.31c13.34,27.33,21.92,92.81,6,177.1-8.33,44-4.27,28.19-22.62,84.39-25.31,77.54-6,112.91,9,140.58,23.65,43.68,94.36,93.23,142.85,67.75,23.84-12.52,45.22-61.84,47.62-95.08.36-4.93,1.4,8.78,1.19,5.94-2.52,6.67-16.36,41.51-45.24,48.73-35,8.75-86.26-42.62-101.19-107,.4-29.32,5.95-57.58,6.35-86.9,5.15-20.09,16.5-42.2,15.57-72.7C696,170.7,677,105.33,638.87,86.31Z"/>
                  <path id="Shadow-4" data-name="Shadow" class="cls-3" d="M662.84,622.57c10.21,8.89,40.52,26.62,81.54,22,55.33-6.24,108.41-58.25,108.93-139.65C864,529.31,864.6,549.56,864,560.77c-1.83,35.77-20.92,82.52-50,86.76a33.17,33.17,0,0,1-14.29-1.18A122.37,122.37,0,0,1,765.22,663C754,666.33,735,672,714,666.55,682,658.19,666.23,629.2,662.84,622.57Z"/>
                  <path id="Shadow-5" data-name="Shadow" class="cls-3" d="M240.37,622.57c-10.22,8.89-40.53,26.62-81.55,22-55.32-6.24-108.4-58.25-108.93-139.65-10.67,24.4-11.28,44.65-10.71,55.86,1.82,35.77,20.91,82.52,50,86.76a33.12,33.12,0,0,0,14.28-1.18A122.31,122.31,0,0,0,138,663c11.19,3.34,30.22,9,51.19,3.56C221.23,658.19,237,629.2,240.37,622.57Z"/>
                  <path id="Shadow-6" data-name="Shadow" class="cls-3" d="M662.24,622c4,30.17,23.76,55.59,51.19,65.37,32.73,11.67,69.84-1.29,86.91-25a59.51,59.51,0,0,0,8.33-16.64c-.09-.52-1-5.47-4.76-7.13-4.11-1.8-10.4.78-13.1,7.13a87.88,87.88,0,0,1-19,15.45c-5.32,3.21-10.92,6.58-19,8.32-11.12,2.39-20.2.28-26.19-1.19a70.37,70.37,0,0,1-27.38-13.07c-11.11-8.78-13.24-14.2-27.38-25C667.4,627,664.75,623.43,662.24,622Z"/>
                  <path id="Shadow-7" data-name="Shadow" class="cls-4" d="M151.53,258.28c12.36,39.36,10.31,69,5.95,89.14-8.68,40.07-26.19,56.89-26.19,95.09a54.58,54.58,0,0,0,25,46.35c16.41,10.53,46.24-8,66.67-44a59.72,59.72,0,0,1-25,17.83c-5,1.86-10.5,4.14-17.86,3.57-2.26-.18-13.07-1-19-8.32-5.83-7.13-4.28-17-2.38-27.34,4.87-26.39,10.24-45.81,11.91-52.3,2.8-10.87,9.71-37.75,4.76-66.56C173.28,299.77,167.9,280.1,151.53,258.28Z"/>
                </g>
                <g id="Light" class="cls-5">
                  <path class="cls-6" d="M108.67,242.83a52.74,52.74,0,0,0-25,27.33c-7.79,19.88-.23,37.28,1.19,40.42L73,308.2a42.54,42.54,0,0,1-13.1-23.77c-.64-3.73-2.51-15.66,4.77-27.34a36,36,0,0,1,16.66-14.26C94.33,237.44,106.1,241.8,108.67,242.83Z"/>
                  <path class="cls-4" d="M102.72,511.44c6.27-4.58,21.1,17.59,51.19,26.15,20.77,5.91,40.32,2.93,54.76-1.19a91.37,91.37,0,0,1-40.47,20.21c-11.44,2.4-35.55,7.47-52.38-7.13C101.84,537.35,97.24,515.46,102.72,511.44Z"/>
                  <path class="cls-7" d="M769.38,252.34c-33.57,61-25,98.65-19,118.85,3.61,12.28,7.14,21.4,14.28,42.79,3.39,10.16,15.48,47.54-13.09,61.81-15.17,7.57-38.46,2.5-57.15-15.45l25,7.13,21.43-6c4.06-4.68,9-11.87,10.72-21.39,2.6-14.78-4.16-27.06-7.15-33.28-9-18.74-8.67-36.49-9.52-71.31-.73-30-.93-48.83,11.9-65.38A62.32,62.32,0,0,1,769.38,252.34Z"/>
                  <path class="cls-8" d="M380.54,68.48c-17.29-15.84-55.87,2.37-58.34,3.57-5.3,2.57-37.84,19-41.66,47.54-.66,4.89-2.06,15.35,4.76,21.4,2.22,2,7.5,5.27,21.43,2.37s23-7.49,67.85-41.6c5.6-4.25,12.64-9.76,13.1-17.83C388.15,75.63,381.38,69.25,380.54,68.48Z"/>
                  <ellipse class="cls-8" cx="263.28" cy="184.37" rx="19.64" ry="19.61"/>
                  <path class="cls-8" d="M328.16,34c1.45,1.81-71.32,37.76-92.86,115.3-6.74,24.26-6,43.54-4.76,72.5,3.15,76.85,26.51,98.3,25,154.51-.58,21.55-4.95,53.17-23.81,91.52a335.93,335.93,0,0,0,1.19-66.56c-1.48-18-3.93-30-9.53-58.24C211.88,285,206.12,256,205.54,250.33c-1.25-12-6.16-59.14,10.71-104.59C245.7,66.42,326.66,32.15,328.16,34Z"/>
                </g>
              </g>
            </g>
            <g id="Legs_Color" data-name="Legs Color">
              <g>
                <path class="cls-9" d="M126.79,303.15l-21.43,13.08a78.83,78.83,0,0,1,2.38,28.52c-1.91,18.47-10,29-22.61,53.49-5,9.61-11.83,23.72-19,41.6a91,91,0,0,0-20.24,11.88,97.29,97.29,0,0,0-19.05,20.21A110,110,0,0,0,8.94,514.72c-1.83,9-7.3,41.44,8.33,76.07,11.44,25.36,29.47,41.43,41.67,52.29,5.24,4.68,9.85,8.28,13.09,10.7q6,21.39,11.9,42.79l21.43,32.09,52.38,33.28,40.48,9.51a163.11,163.11,0,0,0,47.62-3.57c4.62-1,9-2.25,13.09-3.56-8.94-2.38-21.7-5.94-36.9-10.7-29-9.09-43.51-13.63-54.76-20.2-25.19-14.73-38.8-35-46.43-46.36a172.6,172.6,0,0,1-25-58.24,11.49,11.49,0,0,0-19,11.89,25.8,25.8,0,0,1-13.09-3.57c-9.19-5.55-14.09-17.09-13.1-29.71a148.77,148.77,0,0,1-9.52-48.73C40,514.46,59.37,481.77,68.46,468.36A212.38,212.38,0,0,0,95.84,537.3l17.86,7.13a167.32,167.32,0,0,0-7.15-22.58A167.55,167.55,0,0,0,93.46,495.7,81.14,81.14,0,0,1,91.08,466a83.09,83.09,0,0,1,17.85-42.79,230,230,0,0,0,22.62-55.86c2.71-10.64,3.36-16.72,3.58-21.4A94.77,94.77,0,0,0,126.79,303.15Z"/>
                <path class="cls-9" d="M776.74,307.91,798.17,321a79.14,79.14,0,0,0-2.38,28.53c1.92,18.47,10,29,22.62,53.48,5,9.61,11.83,23.72,19.05,41.6a91,91,0,0,1,20.24,11.89,96.9,96.9,0,0,1,19,20.2,109.85,109.85,0,0,1,17.86,42.79c1.83,9,5.56,42.66-10.06,77.29C873.09,622.13,856.8,637,844.6,647.84c-5.24,4.67-9.85,8.27-13.09,10.7L819.6,701.32l-21.43,32.1c-17.46,11.09-38.39,20.42-55.85,31.51-13.49,3.17-27.86,5.89-41.35,9.06-13.4.94-25.35,2.72-43.27-1.35-4.62-1-9-2.26-13.1-3.57,8.94-2.38-9.26-4.41,5.94-9.18,29-9.08,73.48-22.62,84.72-29.2C760.45,716,772,700.76,779.64,689.4c14.73-21.93,24.66-40.78,28.06-55.82a11.49,11.49,0,0,1,19,11.88c3.37,0,11.5,1.82,13.1-3.56,2.33-7.88,7.38-16.94,13.09-29.72a148.74,148.74,0,0,0,9.53-48.73c1-44.23-18.26-79.16-27.35-92.56-1.45,7.06-3.41,16.87-6,24.81a214.53,214.53,0,0,1-21.43,46.36l-17.86,7.13a167.22,167.22,0,0,1,20.24-48.73,81.2,81.2,0,0,0,2.38-29.72A83,83,0,0,0,794.6,428,230.79,230.79,0,0,1,772,372.09c-2.7-10.63-3.35-16.71-3.57-21.39A94.89,94.89,0,0,1,776.74,307.91Z"/>
                <path class="cls-9" d="M325.6,727.47a57.55,57.55,0,0,0,30.95,0c19-5.55,30.77-19.5,34.53-27.33,9.33-19.48,16.07-33.86,20.23-42.79,5.61-12.05,8.83-19.12,16.67-25,9.14-6.81,19.5-8.16,26.19-8.32,4.84-.58,12.82-.74,20.24,3.56,5.67,3.29,9.41,8.25,17.86,26.15,7,14.91,6.87,16.63,11.9,27.34,8.88,18.93,13.33,28.39,22.62,35.66,11.5,9,24.47,11.27,31,11.88a61.43,61.43,0,0,0,19-1.19,429.82,429.82,0,0,1-32.14-45.16c-12.16-19.63-16-29.36-31-51.11C496.31,605.91,485.87,596.31,472,592a55.17,55.17,0,0,0-19-2.38,64.89,64.89,0,0,0-56,29.71q-13.62,19.63-27.38,41.6c-10.43,16.71-19.92,33-28.57,48.73Z"/>
                <path class="cls-9" d="M478,642.91c-4.51.66-6.78,7.26-7.15,8.32-3.16,9.22,3,19,9.53,23.78,6,4.38,15.18,6.77,17.86,3.56,1-1.24,1.12-3.34-1.2-9.51C495.14,664.06,486.73,641.63,478,642.91Z"/>
                <path class="cls-9" d="M425.43,644.1c4.51.66,6.78,7.26,7.14,8.32,3.17,9.22-3,19-9.52,23.77-6,4.39-15.18,6.78-17.86,3.57-1-1.24-1.12-3.34,1.19-9.51C408.26,665.25,416.66,642.82,425.43,644.1Z"/>
              </g>
            </g>
            <g id="Outline">
              <path class="cls-10" d="M105.64,316.53a113.57,113.57,0,0,1-1.15,41.6C97.7,389,80.94,399.81,72.4,418.78a77.64,77.64,0,0,0-5.88,21.85"/>
              <path class="cls-10" d="M798.29,316.53a113.57,113.57,0,0,0,1.15,41.6c6.79,30.87,23.55,41.68,32.09,60.65A78.91,78.91,0,0,1,837.68,443"/>
              <path class="cls-11" d="M691.43,503.58a75.71,75.71,0,0,1-19.2-25.14,102.39,102.39,0,0,1-8.9-30.94,167.25,167.25,0,0,1-.77-32c.19-2.64.38-5.29.64-7.93l.88-7.88,1.12-7.84,1.27-7.79c3.66-20.7,8.88-40.89,14.25-60.94L697.16,263a297.33,297.33,0,0,1-2.44,31.27c-1.29,10.37-3,20.67-4.79,30.92-3.67,20.5-8.06,40.76-11.65,61L677,393.71l-1.16,7.58-1.06,7.58-.88,7.57a206.88,206.88,0,0,0-1.17,30.23,115.31,115.31,0,0,0,5,29.59A95.89,95.89,0,0,0,691.43,503.58Z"/>
              <path class="cls-11" d="M837.68,302.9a27.16,27.16,0,0,1-7.63,10,35.69,35.69,0,0,1-11.36,6.33,39.34,39.34,0,0,1-26.19-.39,39,39,0,0,1-6.06-3,48.31,48.31,0,0,1-5.37-3.79,42.91,42.91,0,0,1-8.75-9.63,38.87,38.87,0,0,1-5.19-11.66,33.34,33.34,0,0,1-1-12.34,52.26,52.26,0,0,0,11.7,19.63A47.51,47.51,0,0,0,786.3,305a44.66,44.66,0,0,0,4.68,2.65,39.42,39.42,0,0,0,4.83,1.91,45.75,45.75,0,0,0,20.86,1.63,50.15,50.15,0,0,0,10.62-2.78A55.31,55.31,0,0,0,837.68,302.9Z"/>
              <path class="cls-10" d="M679.31,350.3a122.48,122.48,0,0,0-6,32.08c-.5,10.08-2,65.44,29.69,79.66,9.28,4.17,25.1,7.89,34.52,0,36.34-30.27-21.26-74.45-4.62-154.51,3.91-18.83,10.56-48.62,35.77-63,16.16-9.19,45.26-15.06,63.09,2.44,13.42,13.16,19.32,38.55,5.9,55.87-13.63,17.59-38,15-39.4,14.82"/>
              <path class="cls-11" d="M811.08,531.91A65.66,65.66,0,0,1,799.53,545a73.31,73.31,0,0,1-14.67,10A70,70,0,0,1,732,559.61a85.5,85.5,0,0,1-16.32-7.1,73.35,73.35,0,0,1-25.91-23.33,161.11,161.11,0,0,0,14.32,9.15A118.09,118.09,0,0,0,719,545.4a116.72,116.72,0,0,0,15.5,5.07,73.17,73.17,0,0,0,7.84,1.5,65.86,65.86,0,0,0,7.92.73,82.68,82.68,0,0,0,31.44-5C792,544.11,801.67,538.59,811.08,531.91Z"/>
              <path class="cls-10" d="M828.78,655.88a145.37,145.37,0,0,0,40.66-41c21.66-33,37.87-87.32,15.6-130.73C871.6,458,844.79,437,833.89,442.55c-12.24,6.21,5.43,40.83-10.78,72.49a75.35,75.35,0,0,1-12,16.87C791.25,553,764.83,556.84,754,557.77"/>
              <path class="cls-12" d="M231.9,390.11c-3.41-16.62-8.42-41.28-14.35-71.3-6.59-33.38-10.23-50-10.79-55.83-2.81-29.47-11.14-84.45,18.5-135C297.76,4.31,445.4,6,445.4,6h13.13S606.17,4.3,678.67,128C708.3,178.52,700,233.5,697.16,263c-.55,5.79-4.19,22.44-10.78,55.82-5.93,30-10.94,54.68-14.35,71.31"/>
              <path class="cls-11" d="M212.5,503.59a96,96,0,0,0,13.75-27.32,115.38,115.38,0,0,0,5-29.59,207,207,0,0,0-1.17-30.24l-.88-7.57-1.06-7.57L227,393.72l-1.31-7.58c-3.59-20.2-8-40.46-11.65-61-1.82-10.25-3.5-20.56-4.79-30.93A299.83,299.83,0,0,1,206.76,263l16.45,60.14c5.37,20.05,10.59,40.23,14.25,60.94l1.27,7.79,1.12,7.83.88,7.89c.26,2.63.45,5.29.64,7.93a166.47,166.47,0,0,1-.78,32,101.94,101.94,0,0,1-8.89,30.93A75.75,75.75,0,0,1,212.5,503.59Z"/>
              <path class="cls-11" d="M66.24,302.9a55.76,55.76,0,0,0,10.4,5.48,50.59,50.59,0,0,0,10.62,2.78,45.9,45.9,0,0,0,20.86-1.63,40.12,40.12,0,0,0,4.83-1.92,42.83,42.83,0,0,0,4.68-2.64,47.56,47.56,0,0,0,8.42-6.87,52.26,52.26,0,0,0,11.7-19.63,33.56,33.56,0,0,1-.95,12.34,39.18,39.18,0,0,1-5.19,11.67,42.57,42.57,0,0,1-8.75,9.62,45.81,45.81,0,0,1-5.37,3.79,38.16,38.16,0,0,1-6.06,3,39.25,39.25,0,0,1-26.19.4,36.07,36.07,0,0,1-11.36-6.33A27.22,27.22,0,0,1,66.24,302.9Z"/>
              <path class="cls-10" d="M224.62,350.3a122.48,122.48,0,0,1,6,32.09c.5,10.08,2,65.43-29.69,79.66-9.28,4.17-25.1,7.88-34.52,0-36.34-30.28,21.26-74.45,4.62-154.52-3.91-18.83-10.56-48.62-35.77-63C119.08,235.4,90,229.53,72.15,247c-13.42,13.17-19.33,38.55-5.91,55.87,13.64,17.59,38,15,39.4,14.82"/>
              <path class="cls-11" d="M92.85,531.92a121.75,121.75,0,0,0,29.36,15.84,82.85,82.85,0,0,0,31.44,5,69.82,69.82,0,0,0,7.91-.73,72.92,72.92,0,0,0,7.85-1.51,116.72,116.72,0,0,0,15.5-5.07,118.63,118.63,0,0,0,14.93-7.06,162.08,162.08,0,0,0,14.33-9.15,73.44,73.44,0,0,1-25.91,23.33,84.85,84.85,0,0,1-16.32,7.09,69.86,69.86,0,0,1-52.87-4.68,72.89,72.89,0,0,1-14.67-10A65.61,65.61,0,0,1,92.85,531.92Z"/>
              <path class="cls-10" d="M75.15,655.89a145.52,145.52,0,0,1-40.67-41c-21.65-33-37.86-87.32-15.59-130.73C32.33,458,59.14,437,70,442.55c12.24,6.21-5.43,40.84,10.78,72.5a75,75,0,0,0,12,16.87c19.83,21.09,46.25,24.93,57.06,25.85"/>
              <path class="cls-11" d="M669.45,639a193.59,193.59,0,0,1-10.34-16.59,187.51,187.51,0,0,1-8.51-17.32,187.17,187.17,0,0,0,26.25,27.18Z"/>
              <path class="cls-10" d="M230.78,635.6c-15.43,17-37.64,34.48-63.62,34.45a88,88,0,0,1-20.54-2.84c-34.19-10-47.31-46.54-60.23-41.9-11.5,4.13-14.61,38-4.73,65.73,16.36,46,67.05,71.42,106,78.35a145.9,145.9,0,0,0,57.74-1.45c10.85-2.42,58-11.75,90.6-50.14,5.56-6.55,22.35-33.88,55.46-89,5.63-9.37,16.68-27.85,38.09-35.66A55.83,55.83,0,0,1,451,589.6h2a55.6,55.6,0,0,1,21.43,3.56c21.41,7.81,32.46,26.29,38.09,35.66,33.11,55.09,49.9,82.43,55.46,89,32.61,38.4,79.75,47.72,90.6,50.15a145.72,145.72,0,0,0,57.74,1.44c38.92-6.93,89.61-32.4,106-78.35,9.88-27.73,6.77-61.6-4.73-65.73-12.93-4.63-26,32-60.23,41.9A87.53,87.53,0,0,1,736.76,670c-26,0-48.18-17.48-63.61-34.44"/>
              <path class="cls-11" d="M253.33,605.06a187.34,187.34,0,0,1-8.51,17.31A190.53,190.53,0,0,1,234.48,639l-7.4-6.72a188.53,188.53,0,0,0,26.25-27.18Z"/>
            </g>
            <g id="Legs_Outline" data-name="Legs Outline">
              <path class="cls-10" d="M776.79,303.15a135.41,135.41,0,0,0-5.95,32.1c-4.13,67,45.62,98.62,41.66,149.75-1.27,16.44-8.54,40.72-39.28,68.94"/>
              <path class="cls-10" d="M830.36,454.1c44,70.32,41.55,153.47-2.38,194.93"/>
              <path class="cls-10" d="M807.74,630c-1.7,7-23.12,89.06-102.38,117.67-53,19.12-93.85,1.61-107.14-3.57"/>
              <path class="cls-10" d="M127.22,303.15a135.93,135.93,0,0,1,5.95,32.1c4.12,67-45.63,98.62-41.67,149.75,1.27,16.44,8.55,40.72,39.29,68.94"/>
              <path class="cls-10" d="M73.64,454.1C29.66,524.42,32.1,607.57,76,649"/>
              <path class="cls-10" d="M96.26,630c1.7,7,23.12,89.06,102.38,117.67,53,19.12,93.85,1.61,107.15-3.57"/>
              <path class="cls-10" d="M579.17,731c-33.6-.32-49.77-10.72-58.33-20.21-14.14-15.66-16.48-38.76-35.72-67.75-3.34-5-9.9-14.33-21.43-17.82-5.25-1.6-9.52-1.19-13.09-1.19h3.57c-3.57,0-7.84-.41-13.09,1.19C429.55,628.75,423,638,419.65,643.08c-19.24,29-21.58,52.09-35.72,67.75-8.56,9.49-24.73,19.89-58.33,20.21"/>
              <path class="cls-10" d="M481.55,636c-1.26.1-1.57-.5-5.95,4.76-6,7.16-2.88,16.42-2.38,17.83.19.55,6.8,20.19,17.86,21.39a16.91,16.91,0,0,0,14.28-4.75"/>
              <path class="cls-10" d="M422,639.52c1.26.09,1.57-.51,5.95,4.75,6,7.16,2.88,16.42,2.38,17.83-.19.56-6.8,20.2-17.86,21.4a16.93,16.93,0,0,1-14.28-4.76"/>
            </g>
            <g id="T_Clr" data-name="T Clr">
              <path class="cls-9" d="M791.07,341.19c-.92,0-8.31.34-13.09,5.94-7.08,8.29-2.54,21.27,0,28.53,2.63,7.51,7.44,21.26,17.86,22.58,8.68,1.1,15.69-7.14,16.66-8.32,7.32-8.86,5.24-20,4.76-22.58C814.89,354.6,803.89,340.83,791.07,341.19Z"/>
              <path class="cls-9" d="M870.47,461.6c-.92,0-8.31.34-13.09,5.94-7.08,8.29-2.54,21.27,0,28.53,2.63,7.51,7.44,21.25,17.85,22.58,8.69,1.1,15.69-7.14,16.67-8.32,7.32-8.86,5.24-20,4.76-22.58C894.29,475,883.29,461.24,870.47,461.6Z"/>
              <path class="cls-9" d="M815.9,692.08c-.53-.75-4.9-6.71-12.22-7.58-10.84-1.27-19.13,9.7-23.76,15.84-4.81,6.35-13.59,18-8.91,27.36,3.9,7.83,15.18,11.9,16.7,12,11.45,1.16,19.06-9.58,20.94-11.4C818,719.31,823.31,702.53,815.9,692.08Z"/>
            </g>
            <g id="T_Clr-2" data-name="T Clr">
              <path class="cls-9" d="M115.54,341.19c.92,0,8.31.34,13.09,5.94,7.08,8.29,2.54,21.27,0,28.53-2.62,7.51-7.43,21.26-17.85,22.58-8.69,1.1-15.69-7.14-16.67-8.32-7.32-8.86-5.24-20-4.76-22.58C91.72,354.6,102.72,340.83,115.54,341.19Z"/>
              <path class="cls-9" d="M32.11,463.61c.92,0,8.31.35,13.09,5.94,7.08,8.3,2.54,21.27,0,28.53-2.63,7.51-7.44,21.26-17.85,22.58-8.69,1.11-15.7-7.14-16.67-8.32-7.32-8.86-5.24-20-4.76-22.58C8.29,477,19.29,463.25,32.11,463.61Z"/>
              <path class="cls-9" d="M85.35,691.49c.61-.86,5.62-7.7,14-8.69,12.44-1.46,22,11.14,27.29,18.18,5.52,7.29,15.61,20.64,10.24,31.4-4.47,9-16.82,10.4-18.57,10.58-13.14,1.32-22.48-7.76-24.64-9.86C83,722.73,76.85,703.47,85.35,691.49Z"/>
            </g>
            <g id="Tentacles">
              <g id="Tentacles-2" data-name="Tentacles">
                <g>
                  <path class="cls-10" d="M780.36,344.75c-9.42,7.65-7.55,23.54-4.76,32.1,1.27,3.89,6.35,19.47,19,21.39,8.36,1.26,14.82-4.18,15.48-4.75,10.19-8.86,5.73-25.3,4.76-28.53-3.55-11.88-14.61-24.95-26.19-23.77A15.91,15.91,0,0,0,780.36,344.75Z"/>
                  <path class="cls-11" d="M794.05,357.23a68.1,68.1,0,0,0-.24,7.08,16.23,16.23,0,0,0,1.19,5.84,16.94,16.94,0,0,0,3.34,4.93,61.94,61.94,0,0,0,5.23,4.74,12.49,12.49,0,0,1-7.61-1.58,12.45,12.45,0,0,1-6-14.44A13.36,13.36,0,0,1,794.05,357.23Z"/>
                </g>
                <g>
                  <path class="cls-10" d="M861.17,465.63c-9,8.14-6.27,23.91-3,32.3,1.48,3.82,7.4,19.11,20.18,20.33,8.41.81,14.56-5,15.2-5.58,9.69-9.39,4.35-25.57,3.21-28.74-4.2-11.67-16-24.13-27.44-22.32A15.88,15.88,0,0,0,861.17,465.63Z"/>
                  <path class="cls-11" d="M875.51,477.35a69.76,69.76,0,0,0,.15,7.08,16.39,16.39,0,0,0,1.5,5.77,17,17,0,0,0,3.6,4.74,60.88,60.88,0,0,0,5.49,4.44,12.5,12.5,0,0,1-7.69-1.15,12.44,12.44,0,0,1-6.79-14.1A13.31,13.31,0,0,1,875.51,477.35Z"/>
                </g>
                <g>
                  <path class="cls-10" d="M808.83,681.82c-13.61-3.38-27,9.37-33,17.88-2.73,3.88-13.63,19.38-6.59,32.43,4.63,8.59,14.15,10.77,15.15,11,15.27,3.26,27.39-12.27,29.71-15.4,8.53-11.53,13-30.81,3.83-40.67A18.3,18.3,0,0,0,808.83,681.82Z"/>
                  <path class="cls-11" d="M806.78,703.12a65.74,65.74,0,0,0-6.86,4.42,18.28,18.28,0,0,0-4.77,5.22,18.93,18.93,0,0,0-2.23,6.7,57.41,57.41,0,0,0-.44,8.12,15,15,0,0,1-3.51-8.13,14.61,14.61,0,0,1,1.87-9.22,14.76,14.76,0,0,1,7.17-6.08A16.09,16.09,0,0,1,806.78,703.12Z"/>
                </g>
              </g>
              <g id="Tentacles-3" data-name="Tentacles">
                <g>
                  <path class="cls-10" d="M123.87,344.75c9.42,7.65,7.55,23.54,4.76,32.1-1.27,3.89-6.34,19.47-19,21.39-8.36,1.26-14.82-4.18-15.48-4.75-10.19-8.86-5.73-25.3-4.76-28.53C92.91,353.08,104,340,115.54,341.19A15.87,15.87,0,0,1,123.87,344.75Z"/>
                  <path class="cls-11" d="M110.18,357.23a13.36,13.36,0,0,1,4.11,6.57,12.41,12.41,0,0,1-6,14.44,12.49,12.49,0,0,1-7.61,1.58,63.77,63.77,0,0,0,5.24-4.74,17.1,17.1,0,0,0,3.33-4.93,16,16,0,0,0,1.19-5.84A68.1,68.1,0,0,0,110.18,357.23Z"/>
                </g>
                <g>
                  <path class="cls-10" d="M43.06,465.63c9,8.14,6.27,23.91,3,32.3-1.48,3.82-7.4,19.11-20.18,20.33-8.41.81-14.56-5-15.19-5.58C1,503.29,6.36,487.11,7.5,483.94c4.19-11.67,15.94-24.13,27.44-22.32A15.88,15.88,0,0,1,43.06,465.63Z"/>
                  <path class="cls-11" d="M28.72,477.35a13.31,13.31,0,0,1,3.74,6.78,12.44,12.44,0,0,1-6.79,14.1A12.48,12.48,0,0,1,18,499.38a58.19,58.19,0,0,0,5.49-4.44,17,17,0,0,0,3.6-4.74,16.39,16.39,0,0,0,1.51-5.77C28.8,482.27,28.72,480,28.72,477.35Z"/>
                </g>
                <g>
                  <path class="cls-10" d="M95.4,681.82c13.61-3.38,27,9.37,33,17.88,2.72,3.88,13.62,19.38,6.58,32.43-4.63,8.59-14.15,10.77-15.14,11-15.27,3.26-27.4-12.27-29.72-15.4-8.52-11.53-13-30.81-3.83-40.67A18.38,18.38,0,0,1,95.4,681.82Z"/>
                  <path class="cls-11" d="M97.45,703.12a16.08,16.08,0,0,1,8.77,1,14.38,14.38,0,0,1,9,15.3,15.06,15.06,0,0,1-3.52,8.13,57.41,57.41,0,0,0-.44-8.12,18.73,18.73,0,0,0-2.23-6.7,18.24,18.24,0,0,0-4.76-5.22A67,67,0,0,0,97.45,703.12Z"/>
                </g>
              </g>
            </g>
            <g id="Face">
              <g id="Mouth_Fill" data-name="Mouth Fill">
                <path class="cls-13" d="M478.35,324.37c-2.13-3.69-6.33-5.93-9.39-8.74-4.37-4-9-8.08-11.83-13.35-1.85-3.46-8.19-3.92-10.39-.57-4.84,7.39-11.28,11.37-18.66,15.89-3.95,2.42-3.57,6.36-1.28,9-3.25,10.91,4.19,19.77,14.13,23.32a30.83,30.83,0,0,0,27.29-3C475.23,342.36,483.31,333,478.35,324.37Z"/>
                <path class="cls-14" d="M475,342.08c-2.69-9.41-12.77-13.78-21.91-13.77l-.76,0c-5.89-.16-12.69.91-17.46,3.95-3.57,1.7-6.56,4-8,7s.26,5.43,2.72,6.39a10.09,10.09,0,0,0,4.66,5.09c9.52,5.11,27,4.66,36.55.06C474.24,349.13,476.07,346,475,342.08Z"/>
              </g>
              <g id="White_Fill" data-name="White Fill">
                <path class="cls-2" d="M463.23,306.63c-3.12-3-4.51-8.08-9-9.42-5.3-1.59-9.08,3.13-10.79,7.53a7.62,7.62,0,0,0-.3,1.05,9.82,9.82,0,0,0-2.63,1.52c-2.75,2.3-3.09,5.79-.46,8.37s6.72,3.33,10.15,4c4.46.89,8.35,1,12.39-1.35C467,315.8,466.46,309.71,463.23,306.63Z"/>
                <g>
                  <ellipse class="cls-15" cx="372.27" cy="290.27" rx="38.77" ry="44.49" transform="translate(-12.52 16.82) rotate(-2.55)"/>
                  <path class="cls-15" d="M378.57,336.36a34.91,34.91,0,0,1-4.26.44c-11,.48-21.46-3.95-29.57-12.46a51.35,51.35,0,0,1-2.89-65.6c7.33-9.2,17.41-14.53,28.37-15,22.51-1,41.74,19.08,42.87,44.74h0C414.15,312.49,399,333,378.57,336.36Zm-12-88.06a34.65,34.65,0,0,0-21.47,13,47.16,47.16,0,0,0,2.65,60.12c7.26,7.63,16.62,11.59,26.35,11.16,20.21-.89,35.81-20.61,34.78-44S390.61,247,370.4,247.91A30,30,0,0,0,366.6,248.3Z"/>
                </g>
                <g>
                  <ellipse class="cls-2" cx="536.31" cy="290.34" rx="38.77" ry="44.49" transform="translate(-12.37 24.11) rotate(-2.55)"/>
                  <path class="cls-2" d="M542.62,336.44a35.33,35.33,0,0,1-4.26.44c-11,.48-21.47-3.95-29.58-12.47a51.32,51.32,0,0,1-2.88-65.59c7.33-9.2,17.4-14.53,28.36-15,22.51-1,41.75,19.08,42.88,44.74h0C578.19,312.57,563,333.1,542.62,336.44Zm-12-88.06a34.65,34.65,0,0,0-21.47,13,47.16,47.16,0,0,0,2.65,60.12c7.26,7.62,16.62,11.59,26.35,11.16,20.21-.89,35.81-20.61,34.78-44S554.65,247.1,534.44,248A32,32,0,0,0,530.64,248.38Z"/>
                </g>
              </g>
              <g id="Pupil_Fill" data-name="Pupil Fill">
                <path class="cls-11" d="M372.14,256.52c-8.81.38-16.37,6.11-20.87,14.6,12.34.64,12.83,20.24-.22,20.81a10.59,10.59,0,0,1-4.14-.61c.83,18.52,13.44,33,28.18,32.36s26.05-16.21,25.24-34.75S386.89,255.87,372.14,256.52Z"/>
                <path class="cls-11" d="M561.11,287.91c-11.65.51-13.87-15-5.58-19.6-5.22-7.21-12.83-11.62-21.1-11.26-14.75.65-26,16.21-25.24,34.76s13.44,33.06,28.19,32.41,26-16.21,25.24-34.76c0-.59-.1-1.16-.15-1.75A9.67,9.67,0,0,1,561.11,287.91Z"/>
              </g>
              <g id="Black_Fill" data-name="Black Fill">
                <path class="cls-11" d="M414.73,326.37a53.81,53.81,0,0,0,24.12-11.21,70.64,70.64,0,0,0,14.4-15.83,58.39,58.39,0,0,0,4.28-7.49l-7.75.11a66.57,66.57,0,0,0,10.51,17.55c5,6,11.13,11.12,18.35,14.12a34.1,34.1,0,0,0,12.94,2.69,4.5,4.5,0,0,0,3.09-.87,4.27,4.27,0,0,0,1.56-2.79,4.18,4.18,0,0,0-.88-3.08,4.07,4.07,0,0,0-2.79-1.56,31.34,31.34,0,0,1-7.35-.91l1,.26a34.19,34.19,0,0,1-8-3.18l.95.52a43.44,43.44,0,0,1-9.13-6.83l.81.78a60.28,60.28,0,0,1-9.78-12.48l.58,1a60.86,60.86,0,0,1-4.2-8.44,4.21,4.21,0,0,0-3.9-2.52,4.27,4.27,0,0,0-3.85,2.63c-.38.79-.78,1.57-1.21,2.33l.53-.95a66,66,0,0,1-7.36,10.58q-1.45,1.73-3,3.34l.78-.81a59.2,59.2,0,0,1-12.23,9.78l1-.58a47.93,47.93,0,0,1-11.59,5l1-.29c-1.35.37-2.71.68-4.09.93a4.18,4.18,0,1,0,1.17,8.27Z"/>
                <path class="cls-11" d="M422.79,319.92a38.65,38.65,0,0,0-2.23,13.83,24.68,24.68,0,0,0,2.62,10.39,26.12,26.12,0,0,0,6.95,8.47,29.8,29.8,0,0,0,8.88,4.82,36.69,36.69,0,0,0,10.26,2,38.19,38.19,0,0,0,10.5-.9,36.17,36.17,0,0,0,10.64-4.33A27.18,27.18,0,0,0,483,336.52a33.22,33.22,0,0,0,.3-12.57c-.16-1.09-.38-2.18-.63-3.25a4.47,4.47,0,0,0-1.67-2.79,4.23,4.23,0,0,0-3.06-.77c-2.06.38-4.09,2.45-3.56,4.72a38.06,38.06,0,0,1,1,8c0-.36,0-.71,0-1.07a28,28,0,0,1-.78,7l.26-1a24.21,24.21,0,0,1-2.22,5.67l.52-1a23.35,23.35,0,0,1-3.59,4.85l.78-.81a25.36,25.36,0,0,1-5.3,4.15l1-.57a30.3,30.3,0,0,1-7.33,3.08l1.05-.29a34.42,34.42,0,0,1-8.68,1.2h1.07a33.71,33.71,0,0,1-8.55-1l1,.26a29.61,29.61,0,0,1-6.93-2.68l.95.52a24.19,24.19,0,0,1-5.09-3.72l.81.78A20.87,20.87,0,0,1,430.9,341l.57,1a20.6,20.6,0,0,1-2.11-5l.29,1a23.76,23.76,0,0,1-.81-5.94c0,.36,0,.72,0,1.07a31.1,31.1,0,0,1,1-7.74l-.26,1c.29-1.16.63-2.31,1-3.44a4.19,4.19,0,0,0-7.8-3.05Z"/>
                <path class="cls-11" d="M502.06,242.8c.84-.41,1.69-.8,2.54-1.19l-2.16,1q3.26-1.49,6.6-2.77c2.2-.85,4.44-1.58,6.65-2.39s4.55-1.58,6.85-2.27,4.49-1.5,6.76-2.2c1.26-.39,2.52-.75,3.8-1.1a11.2,11.2,0,0,0,5.9-3.21,14.36,14.36,0,0,0,2-3.22l.74-2a6.3,6.3,0,0,0,0-3.17,4.16,4.16,0,0,0-.62-2,6.19,6.19,0,0,0-1.88-2.7c-.27-.24-.53-.48-.81-.71l-2.16-1.51-2.4-.86-.21,0-2.52-.22a22.83,22.83,0,0,0-3.41.59c-1.27.25-2.52.51-3.78.79a63.55,63.55,0,0,0-7.54,2A111.38,111.38,0,0,0,500.1,223q-3.86,2.14-7.55,4.56a9.36,9.36,0,0,0-4,5.7,10,10,0,0,0,1.15,6.67,9.11,9.11,0,0,0,5.7,4l2.3.2a9,9,0,0,0,4.39-1.35Z"/>
                <path class="cls-11" d="M419.31,224.86c-1.61-1.15-3.25-2.26-4.88-3.38l1.94,1.35-.14-.16,1.53,1.85a16.73,16.73,0,0,0-1.92-2.34,17.6,17.6,0,0,0-2.59-1.77l-1.68-1a29.22,29.22,0,0,0-3-1.71c-2.18-1-4.42-1.85-6.66-2.68a86.45,86.45,0,0,0-9.4-3q-3.51-.85-7.07-1.5a18,18,0,0,0-4.57-.24,13.93,13.93,0,0,1-1.94-.08c-1.37-.09-2.75-.15-4.12-.19a9.84,9.84,0,0,0-4.83,1.48,10,10,0,0,0-3.57,3.86,7.94,7.94,0,0,0-1,3.66,4.77,4.77,0,0,0,.1,2.46,8.23,8.23,0,0,0,.23,1.3,9.79,9.79,0,0,0,7.34,6.77c1.86.37,3.7.79,5.54,1.24l-2.53-.91a31.28,31.28,0,0,0,5.25,1.8c1,.19,2,.39,3,.6,2,.42,3.92.88,5.86,1.4s4,.9,6,1.41,3.91,1.15,5.88,1.66c1.08.28,2.18.47,3.27.72.53.13,1,.25,1.57.39a13.68,13.68,0,0,0,3.88.32l-2.25-.19c1.18.26,2.36.58,3.53.9l2.08.18a6.11,6.11,0,0,0,3-.78,4.17,4.17,0,0,0,1.81-1.14,6.22,6.22,0,0,0,2.1-2.49,9.73,9.73,0,0,0,.9-4.07,9.09,9.09,0,0,0-2.63-5.67Z"/>
                <path class="cls-11" d="M332.44,356l1.32-.57.64-.27.34-.15.87-.39a4.7,4.7,0,0,0,2.07-1.43c.76-.72,1.51-1.47,2.27-2.21a4.74,4.74,0,0,0,1.25-2.15,5.7,5.7,0,0,0-.19-4.69,4.75,4.75,0,0,0-1.42-2,6.36,6.36,0,0,0-4.52-1.66l-1.59.27a6.26,6.26,0,0,0-2.79,1.75c-.78.68-1.57,1.35-2.33,2.05a9.29,9.29,0,0,0-1.61,2.54l-.68,1.33-.48,1.31-.12,1.37c.08.45.16.91.23,1.36a4.08,4.08,0,0,0,1,1.83,2.75,2.75,0,0,0,1.06,1,5.38,5.38,0,0,0,2.59.95,4.09,4.09,0,0,0,2.05-.17Z"/>
                <path class="cls-11" d="M352.13,357.22l2-1.92,1-1,.12-.11a13,13,0,0,0,.92-1.32,12.43,12.43,0,0,0,.58-1.58l.22-.63.19-.53.09-.27a8.19,8.19,0,0,0,.13-1.31l-.21-1.27-.54-1.18c-.25-.44,2,1.33-.85-1-.06,0-1-.72-1.1-.75l-1.23-.45-.64-.05a2.38,2.38,0,0,0-1.27.05l-.63.1-1.18.54-.15.07-.33.15c-.41.19-.84.35-1.24.57a5.14,5.14,0,0,0-.69.55,3.69,3.69,0,0,0-.67.58l-.2.25-.45.54-2,2.48a4.22,4.22,0,0,0-1.1,1.89,5.07,5.07,0,0,0,.17,4.15,4.23,4.23,0,0,0,1.25,1.8l1.22.86a5.67,5.67,0,0,0,2.77.61l1.41-.24a5.61,5.61,0,0,0,2.46-1.55Z"/>
                <path class="cls-11" d="M573.93,350.44l1.67-1.1a9.26,9.26,0,0,0,2.14-1.9,11.71,11.71,0,0,0,1.7-2.29c.28-.61.53-1.24.78-1.86a7.13,7.13,0,0,0,.75-3.45c0-.13,0-.25,0-.37s0-.49,0-.74a4.15,4.15,0,0,0-.51-2,4,4,0,0,0-1.2-1.72,5.6,5.6,0,0,0-3.81-1.4l-.73,0h-.37a7.1,7.1,0,0,0-3.39,1c-.59.31-1.19.61-1.77.94a11.57,11.57,0,0,0-2.16,1.88,9.44,9.44,0,0,0-1.71,2.29c-.32.58-.64,1.17-1,1.76l-.6,1.65a5.24,5.24,0,0,0,0,2.58,3.47,3.47,0,0,0,.51,1.66,5.17,5.17,0,0,0,1.53,2.2l1.49,1,1.65.59a7.6,7.6,0,0,0,5-.86Z"/>
                <path class="cls-11" d="M595.21,346.56l1.29-1.88.63-.93c.11-.14.21-.29.31-.44a5.7,5.7,0,0,0,.64-3,5.58,5.58,0,0,0-2.07-4.19l1.14,1.82a2.64,2.64,0,0,0-.45-1,1.79,1.79,0,0,0-.35-.43,3.08,3.08,0,0,0-1.21-1,9.12,9.12,0,0,0-1-.35,4.51,4.51,0,0,0-2.13.1l3.09.27a3.65,3.65,0,0,0-1.59-.63,4.43,4.43,0,0,0-2.23,0,2.18,2.18,0,0,0-.8.15,5.87,5.87,0,0,0-2.6,1.63l-.91,1.29-.1.15-.15.22-.66,1-1.31,1.92a4.38,4.38,0,0,0-.58,2.19,4.47,4.47,0,0,0,.18,2.23,4.32,4.32,0,0,0,1.14,2,4.39,4.39,0,0,0,1.79,1.51l1.44.52a6,6,0,0,0,3-.12l1.39-.63a5.86,5.86,0,0,0,2.12-2.3Z"/>
              </g>
            </g>
          </g>
        </g>
        <g id="Tako_Type_Logo" data-name="Tako Type Logo">
          <path class="cls-2" d="M2660.84,355.17c6.46-4.47,12.06-11.21,16.82-19,0,0,0,0,0,0,11.26-18.58,17.54-43.12,18.32-57.08-.49-7-2.5-12.83-6.1-16.56a20.41,20.41,0,0,0-4.5-3.69,19.54,19.54,0,0,0-4.33-1.18,6.69,6.69,0,0,0-1-.12c-.21,0-.42,0-.66,0a21.36,21.36,0,0,0-3.29,0,18.1,18.1,0,0,0-2.15.28l-18.43,3.68q-36.24,7.41-72.51,14.86v-.47L2556,281.23l-.61-.17q-32.22-8.83-70.43-8.83a299.68,299.68,0,0,0-38,2.35,246.45,246.45,0,0,0-27.19,5.11c-2.15.55-4.29,1.09-6.38,1.68A203,203,0,0,0,2376,295.83q-35,17.81-58.09,47.05a173.48,173.48,0,0,0-13.9,20.37q-25.53,43.83-25.52,103.24T2304,570.1a175.28,175.28,0,0,0,14.41,21.22,167.22,167.22,0,0,0,23.86,24.47,180.61,180.61,0,0,0,34.12,22.49,210.25,210.25,0,0,0,53.9,18.67,262.82,262.82,0,0,0,49.3,5.25c1.77,0,3.54.07,5.33.07q62.48,0,109-24t72-68.18q25.5-44.19,25.5-103.61t-25.5-103.24C2664.28,360.49,2662.61,357.81,2660.84,355.17ZM2444.05,550q-16.43-11.06-24.28-33.37-7.17-20.36-7.18-50.11t7.18-50.12q8.51-24.27,27.19-35.23,15.48-9.13,38-9.13,60.5,0,70.43,66.07a207.86,207.86,0,0,1,0,56.81q-9.9,66-70.43,66.05Q2460.29,560.94,2444.05,550Z"/>
          <path class="cls-2" d="M2251.1,595.23q0,25.15-17.9,44.95t-43,19.81q-21.33,0-42.64-19l-154.64-147V596.76q0,31.23-19.43,47.24a67.13,67.13,0,0,1-21.23,11.8,89.81,89.81,0,0,1-54.16,0A66.63,66.63,0,0,1,1876.7,644q-19.42-16-19.43-47.24V239.64c7.3-71.71,55.17-115.16,96-122.13a65.66,65.66,0,0,1,11.39-1c18.82,0,28.21,8.57,28.21,27.62V436.77l140.91-143.23q19-19.79,44.2-19.8,24.36,0,43,18.67t18.67,42.27q0,23.64-19.8,43.43l-83,82.28,94.45,90.66Q2251.12,570.09,2251.1,595.23Z"/>
          <path class="cls-2" d="M1739.59,313.74q41.52,41.53,41.52,126.08V599q0,29-17.14,45.33t-47.61,16.38q-26.67,0-43.8-15.24t-18.67-41.14a84.32,84.32,0,0,1-35.8,42.67q-25.14,15.23-60.18,15.23-38.85,0-70.08-15.62t-49.13-43.42q-17.91-27.79-17.9-62.85,0-40.36,20.94-64.37t66.66-34.67q45.7-10.65,123.4-10.66h20.57v-9.14q0-26.66-12.19-38.48t-41.13-11.8q-31.24,0-91.41,21.33-17.54,6.11-29.71,6.09-19,0-30.47-13.71T1436,349.16q0-16.74,6.86-27.42T1465,302.69q26.65-13.71,67-22.09a389.75,389.75,0,0,1,79.23-8.38Q1698.08,272.22,1739.59,313.74ZM1634.85,552.19q17.52-19.43,17.52-49.9v-9.14h-12.19q-48.75,0-69.32,8.76t-20.56,29.33q0,17.53,11,29t28.57,11.43Q1617.33,571.62,1634.85,552.19Z"/>
          <path class="cls-2" d="M1465.46,184.79a83.59,83.59,0,0,1-4.17,27,66,66,0,0,1-11.82,21.33q-16,19.43-47.23,19.43h-71v289c-7.3,71.71-55.18,115.16-96,122.13a65.66,65.66,0,0,1-11.39,1c-18.82,0-28.21-8.57-28.21-27.63V252.59h-45.47c-71.7-7.28-115.15-55.15-122.12-96a65.26,65.26,0,0,1-1-11.37c0-18.82,8.57-28.22,27.62-28.22h347.62q31.21,0,47.23,19.43a67.09,67.09,0,0,1,11.8,21.24A83.6,83.6,0,0,1,1465.46,184.79Z"/>
        </g>
      </g>
    </g>
  </g>
</svg>
