<svg width="278" height="92" viewBox="0 0 278 92" fill="none" xmlns="http://www.w3.org/2000/svg">
<path d="M272.147 40.0541C273.223 39.3039 274.155 38.1727 274.948 36.8653C276.824 33.7471 277.87 29.6285 278 27.2856C277.918 26.1108 277.584 25.1323 276.984 24.5063C276.765 24.2649 276.512 24.0563 276.234 23.887C276.002 23.7933 275.76 23.7269 275.513 23.689C275.458 23.6781 275.402 23.6713 275.346 23.6689C275.311 23.6689 275.276 23.6689 275.236 23.6689C275.054 23.6547 274.871 23.6547 274.689 23.6689C274.568 23.6773 274.449 23.693 274.33 23.7158L271.26 24.3335C267.236 25.1625 263.21 25.9939 259.182 26.8274V26.7485L254.683 27.6447L254.581 27.6162C251.003 26.6283 247.093 26.1343 242.85 26.1343C240.733 26.1304 238.619 26.2622 236.52 26.5287C234.995 26.7289 233.483 27.0152 231.991 27.3863C231.633 27.4786 231.276 27.5692 230.928 27.6682C228.777 28.2682 226.691 29.0811 224.7 30.0951C220.813 32.0878 217.588 34.7199 215.023 37.9915C214.172 39.0743 213.398 40.2167 212.708 41.4102C209.873 46.3142 208.456 52.0898 208.457 58.737C208.458 65.3842 209.875 71.1805 212.706 76.1259C213.419 77.3705 214.221 78.5608 215.107 79.6872C216.289 81.1894 217.621 82.5655 219.081 83.794C220.828 85.2648 222.735 86.5311 224.765 87.5686C227.602 89.0191 230.623 90.0733 233.743 90.702C236.447 91.2557 239.196 91.5507 241.955 91.5831C242.25 91.5831 242.545 91.5948 242.843 91.5948C249.781 91.5948 255.833 90.2522 260.999 87.5669C266.165 84.8816 270.163 81.0674 272.993 76.1242C275.824 71.1799 277.24 65.3836 277.24 58.7353C277.24 52.087 275.824 46.3114 272.993 41.4085C272.72 40.947 272.441 40.4972 272.147 40.0541ZM236.035 72.7525C234.211 71.515 232.862 69.6482 231.991 67.152C231.194 64.874 230.796 62.0706 230.795 58.742C230.794 55.4134 231.192 52.6095 231.991 50.3304C232.936 47.6149 234.445 45.644 236.52 44.4177C238.239 43.3962 240.349 42.8854 242.85 42.8854C249.568 42.8854 253.479 46.5816 254.581 53.974C255.014 57.1371 255.014 60.3452 254.581 63.5084C253.482 70.8929 249.571 74.588 242.85 74.5936C240.11 74.5902 237.839 73.9765 236.035 72.7525Z" fill="#FDFDFD"/>
<path d="M203.895 80.3437C203.895 83.1577 202.901 85.6723 200.913 87.8877C198.925 90.103 196.538 91.2113 193.751 91.2124C191.382 91.2124 189.014 90.1495 186.648 88.0236L160.889 63.3526V80.6005C160.889 84.0947 159.81 86.7375 157.652 88.5288C156.603 89.4001 155.405 90.0712 154.116 90.5092C151.18 91.4445 148.03 91.4445 145.094 90.5092C143.795 90.0761 142.587 89.4047 141.53 88.5288C139.373 86.7386 138.294 84.0958 138.293 80.6005V20.6649C139.509 8.62983 147.483 1.33761 154.284 0.16783C154.911 0.0564082 155.545 0.000251888 156.182 0C159.316 0 160.881 1.43831 160.881 4.63547V53.7493L184.352 29.711C186.462 27.4968 188.917 26.3891 191.715 26.388C194.42 26.388 196.808 27.4324 198.878 29.5213C200.948 31.6103 201.984 33.975 201.988 36.6155C201.988 39.2605 200.888 41.6902 198.689 43.9044L184.864 57.7135L200.597 72.929C202.798 75.0593 203.897 77.5309 203.895 80.3437Z" fill="#FDFDFD"/>
<path d="M118.691 33.1011C123.302 37.7477 125.607 44.8011 125.607 54.2611V80.9764C125.607 84.2211 124.655 86.757 122.752 88.5841C120.849 90.4112 118.205 91.3276 114.821 91.3332C111.86 91.3332 109.428 90.4806 107.525 88.7754C105.623 87.0703 104.587 84.7688 104.415 81.8709C103.29 84.8697 101.188 87.3946 98.4521 89.0322C95.6604 90.7362 92.3189 91.5883 88.4277 91.5883C84.1135 91.5883 80.2223 90.7144 76.7542 88.9668C73.2862 87.2191 70.5583 84.79 68.5705 81.6796C66.5816 78.5702 65.5877 75.0542 65.5888 71.1314C65.5888 66.6157 66.7515 63.0146 69.0769 60.3282C71.4022 57.6418 75.1035 55.7022 80.1807 54.5095C85.2556 53.3179 92.1074 52.7216 100.736 52.7204H104.162V51.1865C104.162 48.2036 103.485 46.0509 102.132 44.7284C100.778 43.4059 98.4944 42.7457 95.2806 42.748C91.8114 42.748 86.7359 43.9412 80.0541 46.3278C78.1063 47.0114 76.4566 47.3521 75.1052 47.3499C72.9952 47.3499 71.3034 46.5829 70.0297 45.0489C68.7559 43.5149 68.1196 41.5139 68.1207 39.0456C68.1207 37.1726 68.5016 35.6387 69.2634 34.4437C70.0252 33.2488 71.2545 32.1831 72.9514 31.2466C75.9108 29.7126 79.631 28.4768 84.1118 27.5392C88.4518 26.6174 92.8741 26.1461 97.3094 26.1328C106.954 26.1328 114.081 28.4555 118.691 33.1011ZM101.244 73.1202C103.189 70.9463 104.162 68.1547 104.162 64.7455V63.2115H102.132C96.7181 63.2115 92.8691 63.7016 90.5849 64.6817C88.3006 65.6618 87.159 67.3027 87.1601 69.6042C87.1601 71.5656 87.7709 73.1879 88.9924 74.4712C90.214 75.7546 91.8003 76.394 93.7514 76.3895C96.8008 76.384 99.2983 75.2942 101.244 73.1202Z" fill="#FDFDFD"/>
<path d="M73.0276 11.4599C73.0442 12.9986 72.8096 14.5295 72.333 15.9914C71.9031 17.2975 71.2353 18.5115 70.364 19.5712C68.5873 21.7451 65.9648 22.8321 62.4968 22.8321H50.67V71.3351C49.4541 83.3702 41.4785 90.6624 34.679 91.8322C34.0526 91.9436 33.4178 91.9997 32.7817 92C29.6468 92 28.0826 90.5617 28.0826 87.3628V22.8388H20.5086C8.56522 21.617 1.32759 13.583 0.166574 6.72712C0.0558417 6.09717 0.000104015 5.45865 0 4.81889C0 1.66033 1.42754 0.0827201 4.60076 0.0827201H62.5051C65.971 0.0827201 68.5934 1.1697 70.3724 3.34366C71.2374 4.40146 71.9035 5.60951 72.3379 6.90838C72.815 8.37695 73.048 9.91484 73.0276 11.4599Z" fill="#FDFDFD"/>
</svg>
